<svg version="1.2" xmlns="http://www.w3.org/2000/svg" viewBox="0 0 1777 801" width="1777" height="801">
	<title>curriculum-AI-v2</title>
	<defs>
		<linearGradient id="g1" x2="1" gradientUnits="userSpaceOnUse" gradientTransform="matrix(1675.093,0,0,656,46.907,63)">
			<stop offset=".742" stop-color="#005daa"/>
			<stop offset="1" stop-color="#0000a8"/>
		</linearGradient>
	</defs>
	<style>
		.s0 { fill: url(#g1) } 
	</style>
	<g id="Camada 1">
		<path id="&lt;Compound Path&gt;" class="s0" d="m115.9 462.7q-15.2 0-27.8-5.2-12.6-5.2-21.8-14.9-9.2-9.7-14.3-23-5.1-13.3-5.1-29.1 0-15.2 5.4-28.2 5.4-13 15-22.8 9.6-9.8 22.4-15.2 12.8-5.4 27.8-5.4 10.2 0 19.8 3 9.6 3 17.6 8.3 8 5.3 13.4 12.3l-16.6 18.2q-5.2-5.4-10.7-9.1-5.5-3.7-11.4-5.6-5.9-1.9-12.1-1.9-9.2 0-17.3 3.4-8.1 3.4-14 9.6-5.9 6.2-9.3 14.7-3.4 8.5-3.4 18.9 0 10.6 3.3 19.2 3.3 8.6 9.4 14.8 6.1 6.2 14.6 9.5 8.5 3.3 18.7 3.3 6.6 0 12.8-1.8 6.2-1.8 11.5-5.1 5.3-3.3 9.7-7.7l12.8 20.6q-4.8 5.4-12.8 9.8-8 4.4-17.9 6.9-9.9 2.5-19.7 2.5zm109.6 0q-11.4 0-19.8-5.1-8.4-5.1-12.8-14.6-4.4-9.5-4.4-22.7v-65h24.6v59.8q0 8.4 2.6 14.3 2.6 5.9 7.6 9.1 5 3.2 12 3.2 5.2 0 9.5-1.7 4.3-1.7 7.5-4.8 3.2-3.1 5-7.4 1.8-4.3 1.8-9.3v-63.2h24.6v105.4h-24l-0.4-22 4.4-2.4q-2.4 7.6-8.1 13.5-5.7 5.9-13.5 9.4-7.8 3.5-16.6 3.5zm87-2v-105.4h24.2l0.4 33.6-3.4-7.6q2.2-8 7.6-14.4 5.4-6.4 12.5-10.1 7.1-3.7 14.9-3.7 3.4 0 6.5 0.6 3.1 0.6 5.1 1.4l-6.6 27q-2.2-1.2-5.4-2-3.2-0.8-6.4-0.8-5 0-9.5 1.9-4.5 1.9-7.9 5.3-3.4 3.4-5.3 7.9-1.9 4.5-1.9 10.1v56.2zm84.2 0v-105.4h24.2l0.4 33.6-3.4-7.6q2.2-8 7.6-14.4 5.4-6.4 12.5-10.1 7.1-3.7 14.9-3.7 3.4 0 6.5 0.6 3.1 0.6 5.1 1.4l-6.6 27q-2.2-1.2-5.4-2-3.2-0.8-6.4-0.8-5 0-9.5 1.9-4.5 1.9-7.9 5.3-3.4 3.4-5.3 7.9-1.9 4.5-1.9 10.1v56.2zm99-127.8q-7.4 0-11.5-3.7-4.1-3.7-4.1-10.5 0-6.4 4.2-10.4 4.2-4 11.4-4 7.6 0 11.7 3.7 4.1 3.7 4.1 10.7 0 6.2-4.2 10.2-4.2 4-11.6 4zm-12 127.8v-105.4h24.6v105.4zm101 2q-14.8 0-26.6-7.2-11.8-7.2-18.6-19.6-6.8-12.4-6.8-28 0-15.6 6.8-28 6.8-12.4 18.6-19.6 11.8-7.2 26.6-7.2 14.2 0 25.8 5.4 11.6 5.4 18 15l-13.6 16.4q-3-4.2-7.6-7.6-4.6-3.4-9.8-5.4-5.2-2-10.4-2-8.8 0-15.7 4.3-6.9 4.3-10.9 11.8-4 7.5-4 16.9 0 9.4 4.1 16.8 4.1 7.4 11.1 11.8 7 4.4 15.6 4.4 5.2 0 10.1-1.7 4.9-1.7 9.3-4.9 4.4-3.2 8.2-8l13.6 16.6q-6.8 8.8-18.7 14.3-11.9 5.5-25.1 5.5zm99.2 0q-11.4 0-19.8-5.1-8.4-5.1-12.8-14.6-4.4-9.5-4.4-22.7v-65h24.6v59.8q0 8.4 2.6 14.3 2.6 5.9 7.6 9.1 5 3.2 12 3.2 5.2 0 9.5-1.7 4.3-1.7 7.5-4.8 3.2-3.1 5-7.4 1.8-4.3 1.8-9.3v-63.2h24.6v105.4h-24l-0.4-22 4.4-2.4q-2.4 7.6-8.1 13.5-5.7 5.9-13.5 9.4-7.8 3.5-16.6 3.5zm87.2-2v-148h24.8v148zm89.4 2q-11.4 0-19.8-5.1-8.4-5.1-12.8-14.6-4.4-9.5-4.4-22.7v-65h24.6v59.8q0 8.4 2.6 14.3 2.6 5.9 7.6 9.1 5 3.2 12 3.2 5.2 0 9.5-1.7 4.3-1.7 7.5-4.8 3.2-3.1 5-7.4 1.8-4.3 1.8-9.3v-63.2h24.6v105.4h-24l-0.4-22 4.4-2.4q-2.4 7.6-8.1 13.5-5.7 5.9-13.5 9.4-7.8 3.5-16.6 3.5zm86.6-2v-105.4h24.2l0.4 21.2-4 1.6q1.8-5.2 5.4-9.7 3.6-4.5 8.6-7.8 5-3.3 10.6-5.2 5.6-1.9 11.4-1.9 8.6 0 15.3 2.7 6.7 2.7 11.2 8.5 4.5 5.8 6.7 14.8l-3.8-0.8 1.6-3.2q2.2-4.8 6.2-8.7 4-3.9 9-7 5-3.1 10.5-4.7 5.5-1.6 10.9-1.6 12 0 20 4.8 8 4.8 12 14.6 4 9.8 4 24.2v63.6h-24.8v-62q0-8-2.1-13.2-2.1-5.2-6.4-7.7-4.3-2.5-10.7-2.5-5 0-9.5 1.7-4.5 1.7-7.7 4.8-3.2 3.1-5 7.1-1.8 4-1.8 8.8v63h-24.8v-62.2q0-7.6-2.2-12.7-2.2-5.1-6.4-7.8-4.2-2.7-10.2-2.7-5 0-9.4 1.7-4.4 1.7-7.6 4.7-3.2 3-5 7-1.8 4-1.8 8.8v63.2zm658.9-397.7h-272c-64.1 0-116 51.9-116 116v86.7h25.8l111.1 287h-55.3l-24.7-65.6h-56.9v115.9c0 64.1 51.9 116 116 116h272c64.1 0 116-51.9 116-116v-424c0-64.1-51.9-116-116-116zm-67 249.8h-47.1v192.7h47.1v47.2h-147.6v-47.2h47.2v-192.7h-47.2v-47.1h147.6zm-281.6 127.9l-19.3-51.2q-2.1-5-5.5-15.6-3.5-10.7-7.6-23.2-3.9-11.7-7-21.9v-0.1q0 0 0 0 0 0 0 0v0.1q-3.1 10.2-6.9 21.9-4.1 12.5-7.6 23.2-3.5 10.6-5.6 15.6l-19.3 51.2h39.4z"/>
	</g>
</svg>